# Blender v2.83.1 OBJ File: "Charles' Headphones.blend"
# www.blender.org
mtllib Charles' Headphones.mtl
o Headphones_Cylinder
v -0.287013 0.075000 0.442910
v -0.287013 -0.075000 0.442910
v 0.287013 0.075000 0.442910
v 0.287013 -0.075000 0.442910
v 0.692910 0.075000 0.037013
v 0.692910 -0.075000 0.037013
v 0.692910 0.075000 -0.137013
v 0.692910 -0.075000 -0.137012
v -0.692910 0.075000 -0.137013
v -0.692910 -0.075000 -0.137012
v -0.692910 0.075000 0.037013
v -0.692910 -0.075000 0.037013
v -0.258311 0.067500 0.373619
v -0.258311 -0.067500 0.373619
v 0.258311 0.067500 0.373619
v 0.258311 -0.067500 0.373619
v 0.623619 0.067500 0.008311
v 0.623619 -0.067500 0.008311
v 0.623619 0.067500 -0.108311
v 0.623619 -0.067500 -0.108311
v -0.623619 0.067500 -0.108311
v -0.623619 -0.067500 -0.108311
v -0.623619 0.067500 0.008311
v -0.623619 -0.067500 0.008311
v -0.650000 0.230970 -0.204329
v -0.550000 0.230970 -0.204329
v -0.650000 0.230970 -0.395671
v -0.550000 0.230970 -0.395671
v -0.650000 0.095671 -0.530970
v -0.550000 0.095671 -0.530970
v -0.650000 -0.095671 -0.530970
v -0.550000 -0.095671 -0.530970
v -0.650000 -0.230970 -0.395671
v -0.550000 -0.230970 -0.395671
v -0.650000 -0.230970 -0.204329
v -0.550000 -0.230970 -0.204329
v -0.650000 -0.095671 -0.069030
v -0.550000 -0.095671 -0.069030
v -0.650000 0.095671 -0.069030
v -0.550000 0.095671 -0.069030
v 0.650000 0.230970 -0.395671
v 0.550000 0.230970 -0.395671
v 0.650000 0.230970 -0.204329
v 0.550000 0.230970 -0.204329
v 0.650000 0.095671 -0.069030
v 0.550000 0.095671 -0.069030
v 0.650000 -0.095671 -0.069030
v 0.550000 -0.095671 -0.069030
v 0.650000 -0.230970 -0.204329
v 0.550000 -0.230970 -0.204329
v 0.650000 -0.230970 -0.395671
v 0.550000 -0.230970 -0.395671
v 0.650000 -0.095671 -0.530970
v 0.550000 -0.095671 -0.530970
v 0.650000 0.095671 -0.530970
v 0.550000 0.095671 -0.530970
v -0.650000 0.184776 -0.223463
v -0.650000 0.184776 -0.376537
v -0.650000 0.076537 -0.484776
v -0.650000 -0.076537 -0.484776
v -0.650000 -0.184776 -0.376537
v -0.650000 -0.184776 -0.223463
v -0.650000 -0.076537 -0.115224
v -0.650000 0.076537 -0.115224
v -0.750000 0.110866 -0.254078
v -0.750000 0.110866 -0.345922
v -0.750000 0.045922 -0.410865
v -0.750000 -0.045922 -0.410865
v -0.750000 -0.110866 -0.345922
v -0.750000 -0.110866 -0.254078
v -0.750000 -0.045922 -0.189134
v -0.750000 0.045922 -0.189134
v 0.650000 -0.184776 -0.223463
v 0.650000 -0.184776 -0.376537
v 0.650000 -0.076537 -0.484776
v 0.650000 0.076537 -0.484776
v 0.650000 0.184776 -0.376537
v 0.650000 0.184776 -0.223463
v 0.650000 0.076537 -0.115224
v 0.650000 -0.076537 -0.115224
v 0.750000 -0.110866 -0.254078
v 0.750000 -0.110866 -0.345922
v 0.750000 -0.045922 -0.410865
v 0.750000 0.045922 -0.410865
v 0.750000 0.110866 -0.345922
v 0.750000 0.110865 -0.254078
v 0.750000 0.045922 -0.189134
v 0.750000 -0.045922 -0.189134
v 0.550000 0.127868 -0.498579
v 0.550000 0.198579 -0.427868
v 0.550000 0.281421 -0.652132
v 0.550000 0.352132 -0.581421
v 0.650000 0.127868 -0.498579
v 0.650000 0.198579 -0.427868
v 0.650000 0.281421 -0.652132
v 0.650000 0.352132 -0.581421
v 0.550000 0.551921 -0.652132
v 0.550000 0.552132 -0.581421
v 0.650000 0.551921 -0.652132
v 0.650000 0.552132 -0.581421
vt 0.375000 0.503750
vt 0.375000 0.628750
vt 0.343750 0.628750
vt 0.343750 0.503750
vt 0.312500 0.628750
vt 0.312500 0.503750
vt 0.281250 0.628750
vt 0.281250 0.503750
vt 0.343750 0.503750
vt 0.343750 0.628750
vt 0.312500 0.628750
vt 0.312500 0.503750
vt 0.375000 0.503750
vt 0.375000 0.628750
vt 0.187500 0.503750
vt 0.187500 0.628750
vt 0.156250 0.628750
vt 0.156250 0.503750
vt 0.125000 0.628750
vt 0.125000 0.503750
vt 0.281250 0.628750
vt 0.281250 0.503750
vt 0.187500 0.503750
vt 0.187500 0.628750
vt 0.156250 0.628750
vt 0.156250 0.503750
vt 0.125000 0.628750
vt 0.125000 0.503750
vt 0.375000 0.503750
vt 0.375000 0.628750
vt 0.343750 0.628750
vt 0.343750 0.503750
vt 0.312500 0.628750
vt 0.312500 0.503750
vt 0.281250 0.628750
vt 0.281250 0.503750
vt 0.250000 0.628750
vt 0.250000 0.503750
vt 0.218750 0.628750
vt 0.218750 0.503750
vt 0.187500 0.628750
vt 0.187500 0.503750
vt 0.229926 0.483676
vt 0.187500 0.501250
vt 0.145074 0.483676
vt 0.127500 0.441250
vt 0.145074 0.398824
vt 0.187500 0.381250
vt 0.229926 0.398824
vt 0.247500 0.441250
vt 0.156250 0.628750
vt 0.156250 0.503750
vt 0.125000 0.628750
vt 0.125000 0.503750
vt 0.312500 0.501250
vt 0.354926 0.483676
vt 0.372500 0.441250
vt 0.354926 0.398824
vt 0.312500 0.381250
vt 0.270074 0.398824
vt 0.252500 0.441250
vt 0.270074 0.483676
vt 0.375000 0.503750
vt 0.375000 0.628750
vt 0.343750 0.628750
vt 0.343750 0.503750
vt 0.312500 0.628750
vt 0.312500 0.503750
vt 0.281250 0.628750
vt 0.281250 0.503750
vt 0.250000 0.628750
vt 0.250000 0.503750
vt 0.218750 0.628750
vt 0.218750 0.503750
vt 0.187500 0.628750
vt 0.187500 0.503750
vt 0.229926 0.483676
vt 0.187500 0.501250
vt 0.145074 0.483676
vt 0.127500 0.441250
vt 0.145074 0.398824
vt 0.187500 0.381250
vt 0.229926 0.398824
vt 0.247500 0.441250
vt 0.156250 0.628750
vt 0.156250 0.503750
vt 0.125000 0.628750
vt 0.125000 0.503750
vt 0.312500 0.501250
vt 0.354926 0.483676
vt 0.372500 0.441250
vt 0.354926 0.398824
vt 0.312500 0.381250
vt 0.270074 0.398824
vt 0.252500 0.441250
vt 0.270074 0.483676
vt 0.873880 0.448031
vt 0.873880 0.551103
vt 0.838828 0.525292
vt 0.839896 0.479553
vt 0.824666 0.445264
vt 0.821488 0.555224
vt 0.798277 0.552946
vt 0.782739 0.518951
vt 0.784002 0.473430
vt 0.801526 0.443745
vt 0.837343 0.375035
vt 0.785999 0.375189
vt 0.749028 0.447373
vt 0.748873 0.550587
vt 0.785409 0.623476
vt 0.837043 0.623723
vt 0.624384 0.550741
vt 0.624384 0.447902
vt 0.659475 0.473441
vt 0.658626 0.519588
vt 0.673599 0.554532
vt 0.676672 0.443159
vt 0.699588 0.445468
vt 0.714561 0.480412
vt 0.713712 0.526559
vt 0.696515 0.556841
vt 0.660583 0.624599
vt 0.712155 0.624965
vt 0.748803 0.552098
vt 0.748803 0.449259
vt 0.712604 0.375401
vt 0.661032 0.375035
vt 0.156250 0.250000
vt 0.281250 0.250000
vt 0.281250 0.375000
vt 0.156250 0.375000
vt 0.281250 0.500000
vt 0.156250 0.500000
vt 0.281250 0.625000
vt 0.156250 0.625000
vt 0.281250 0.750000
vt 0.156250 0.750000
vt 0.031250 0.500000
vt 0.031250 0.625000
vt 0.406250 0.500000
vt 0.406250 0.625000
vt 0.156250 0.375000
vt 0.281250 0.375000
vt 0.281250 0.500000
vt 0.156250 0.500000
vn 0.0000 0.0000 1.0000
vn 0.7071 0.0000 0.7071
vn 1.0000 0.0000 0.0000
vn -1.0000 0.0000 -0.0000
vn -0.7071 0.0000 0.7071
vn 0.1076 -0.9942 0.0000
vn 0.0761 -0.9942 -0.0761
vn 0.0000 -0.9942 -0.1076
vn -0.0761 -0.9942 -0.0761
vn -0.1076 -0.9942 -0.0000
vn -0.1076 0.9942 -0.0000
vn -0.0761 0.9942 -0.0761
vn 0.0000 0.9942 -0.1076
vn 0.0761 0.9942 -0.0761
vn 0.1076 0.9942 0.0000
vn 0.3827 -0.0000 -0.9239
vn -0.3827 -0.0000 -0.9239
vn 0.0000 1.0000 0.0000
vn 0.0000 0.7071 -0.7071
vn 0.0000 0.0000 -1.0000
vn 0.0000 -0.7071 -0.7071
vn 0.0000 -1.0000 0.0000
vn 0.0000 -0.7071 0.7071
vn 0.0000 0.7071 0.7071
vn 0.5944 -0.5686 -0.5686
vn 0.5944 -0.8042 0.0000
vn 0.5944 -0.5686 0.5686
vn 0.5944 -0.0000 0.8042
vn 0.5944 0.5686 0.5686
vn 0.5944 0.8042 -0.0000
vn 0.5944 0.5686 -0.5686
vn 0.5944 0.0000 -0.8042
vn -0.5944 0.5686 -0.5686
vn -0.5944 0.8042 0.0000
vn -0.5944 0.5686 0.5686
vn -0.5944 0.0000 0.8042
vn -0.5944 -0.5686 0.5686
vn -0.5944 -0.8042 -0.0000
vn -0.5944 -0.5686 -0.5686
vn -0.5944 0.0000 -0.8042
vn 0.0000 1.0000 -0.0030
usemtl Material
s off
f 1/1/1 2/2/1 4/3/1 3/4/1
f 3/4/2 4/3/2 6/5/2 5/6/2
f 5/6/3 6/5/3 8/7/3 7/8/3
f 15/9/2 16/10/2 18/11/2 17/12/2
f 13/13/1 14/14/1 16/10/1 15/9/1
f 9/15/4 10/16/4 12/17/4 11/18/4
f 11/18/5 12/17/5 2/19/5 1/20/5
f 17/12/3 18/11/3 20/21/3 19/22/3
f 21/23/4 22/24/4 24/25/4 23/26/4
f 23/26/5 24/25/5 14/27/5 13/28/5
f 10/16/6 22/24/6 24/25/6 12/17/6
f 12/17/7 24/25/7 14/27/7 2/19/7
f 2/19/8 14/27/8 16/10/8 4/3/8
f 4/3/9 16/10/9 18/11/9 6/5/9
f 6/5/10 18/11/10 20/21/10 8/7/10
f 7/8/11 19/22/11 17/12/11 5/6/11
f 5/6/12 17/12/12 15/9/12 3/4/12
f 3/4/13 15/9/13 13/13/13 1/1/13
f 1/1/14 13/13/14 23/26/14 11/18/14
f 11/18/15 23/26/15 21/23/15 9/15/15
f 9/15/16 21/23/16 22/24/16 10/16/16
f 8/7/17 20/21/17 19/22/17 7/8/17
f 25/29/18 26/30/18 28/31/18 27/32/18
f 27/32/19 28/31/19 30/33/19 29/34/19
f 29/34/20 30/33/20 32/35/20 31/36/20
f 31/36/21 32/35/21 34/37/21 33/38/21
f 33/38/22 34/37/22 36/39/22 35/40/22
f 35/40/23 36/39/23 38/41/23 37/42/23
f 28/43/3 26/44/3 40/45/3 38/46/3 36/47/3 34/48/3 32/49/3 30/50/3
f 37/42/1 38/41/1 40/51/1 39/52/1
f 39/52/24 40/51/24 26/53/24 25/54/24
f 25/55/4 27/56/4 29/57/4 31/58/4 33/59/4 35/60/4 37/61/4 39/62/4
f 41/63/18 42/64/18 44/65/18 43/66/18
f 43/66/24 44/65/24 46/67/24 45/68/24
f 45/68/1 46/67/1 48/69/1 47/70/1
f 47/70/23 48/69/23 50/71/23 49/72/23
f 49/72/22 50/71/22 52/73/22 51/74/22
f 51/74/21 52/73/21 54/75/21 53/76/21
f 44/77/4 42/78/4 56/79/4 54/80/4 52/81/4 50/82/4 48/83/4 46/84/4
f 53/76/20 54/75/20 56/85/20 55/86/20
f 55/86/19 56/85/19 42/87/19 41/88/19
f 41/89/3 43/90/3 45/91/3 47/92/3 49/93/3 51/94/3 53/95/3 55/96/3
f 57/97/25 64/98/25 72/99/25 65/100/25
f 66/101/3 65/100/3 72/99/3 71/102/3 70/103/3 69/104/3 68/105/3 67/106/3
f 58/107/26 57/97/26 65/100/26 66/101/26
f 59/108/27 58/107/27 66/101/27 67/106/27
f 60/109/28 59/108/28 67/106/28 68/105/28
f 61/110/29 60/109/29 68/105/29 69/104/29
f 62/111/30 61/110/30 69/104/30 70/103/30
f 63/112/31 62/111/31 70/103/31 71/102/31
f 64/98/32 63/112/32 71/102/32 72/99/32
f 73/113/33 80/114/33 88/115/33 81/116/33
f 82/117/4 81/116/4 88/115/4 87/118/4 86/119/4 85/120/4 84/121/4 83/122/4
f 74/123/34 73/113/34 81/116/34 82/117/34
f 75/124/35 74/123/35 82/117/35 83/122/35
f 76/125/36 75/124/36 83/122/36 84/121/36
f 77/126/37 76/125/37 84/121/37 85/120/37
f 78/127/38 77/126/38 85/120/38 86/119/38
f 79/128/39 78/127/39 86/119/39 87/118/39
f 80/114/40 79/128/40 87/118/40 88/115/40
f 89/129/4 90/130/4 92/131/4 91/132/4
f 91/132/19 92/131/19 96/133/19 95/134/19
f 95/134/3 96/133/3 94/135/3 93/136/3
f 93/136/23 94/135/23 90/137/23 89/138/23
f 91/139/21 95/134/21 93/136/21 89/140/21
f 96/133/24 92/141/24 90/142/24 94/135/24
f 97/143/41 98/144/41 100/145/41 99/146/41
f 96/133/3 95/134/3 99/146/3 100/145/3
f 92/131/3 91/132/3 97/143/3 98/144/3
f 97/143/20 99/146/20 95/134/20 91/132/20
f 100/145/1 98/144/1 92/131/1 96/133/1
