# Wavefront OBJ exported by MilkShape 3D

v -0.400000 -0.400000 -0.100000
v -0.200000 -0.400000 -0.100000
v -0.300000 0.000000 -0.100000
v -0.100000 0.000000 -0.100000
v -0.400000 -0.400000 0.100000
v -0.200000 -0.400000 0.100000
v -0.100000 0.000000 0.100000
v -0.300000 0.000000 0.100000
v -0.300000 0.000000 -0.100000
v -0.100000 0.000000 -0.100000
v -0.100000 0.000000 0.100000
v -0.300000 0.000000 0.100000
v -0.400000 0.000000 0.100000
v -0.300000 0.200000 0.100000
v 0.400000 0.200000 0.100000
v 0.400000 0.000000 0.100000
v -0.400000 0.000000 -0.100000
v -0.300000 0.200000 -0.100000
v 0.400000 0.200000 -0.100000
v 0.400000 0.000000 -0.100000
v 0.400000 0.100000 0.050000
v 0.400000 0.150000 0.000000
v 0.400000 0.050000 0.000000
v 0.400000 0.100000 -0.050000
v 0.450000 0.100000 0.050000
v 0.450000 0.150000 0.000000
v 0.450000 0.050000 0.000000
v 0.450000 0.100000 -0.050000
v 0.400000 0.100000 0.050000
v 0.400000 0.150000 0.000000
v 0.400000 0.050000 0.000000
v 0.400000 0.100000 -0.050000
v 0.450000 0.100000 0.050000
v 0.450000 0.150000 0.000000
v 0.450000 0.050000 0.000000
v 0.450000 0.100000 -0.050000
v -0.150000 0.050000 0.000000
v -0.250000 0.150000 0.000000
v -0.200000 0.100000 0.050000
v -0.200000 0.100000 -0.050000
v -0.400000 -0.400000 -0.100000
v -0.200000 -0.400000 -0.100000
v -0.300000 0.000000 -0.100000
v -0.100000 0.000000 -0.100000
v -0.400000 -0.400000 0.100000
v -0.200000 -0.400000 0.100000
v -0.100000 0.000000 0.100000
v -0.300000 0.000000 0.100000
v -0.300000 0.000000 -0.100000
v -0.100000 0.000000 -0.100000
v -0.100000 0.000000 0.100000
v -0.300000 0.000000 0.100000
v -0.400000 0.000000 0.100000
v -0.300000 0.200000 0.100000
v 0.400000 0.200000 0.100000
v 0.400000 0.000000 0.100000
v -0.400000 0.000000 -0.100000
v -0.300000 0.200000 -0.100000
v 0.400000 0.200000 -0.100000
v 0.400000 0.000000 -0.100000
v 0.400000 0.100000 0.050000
v 0.400000 0.150000 0.000000
v 0.400000 0.050000 0.000000
v 0.400000 0.100000 -0.050000
v 0.450000 0.100000 0.050000
v 0.450000 0.150000 0.000000
v 0.450000 0.050000 0.000000
v 0.450000 0.100000 -0.050000
v 0.400000 0.100000 0.050000
v 0.400000 0.150000 0.000000
v 0.400000 0.050000 0.000000
v 0.400000 0.100000 -0.050000
v 0.450000 0.100000 0.050000
v 0.450000 0.150000 0.000000
v 0.450000 0.050000 0.000000
v 0.450000 0.100000 -0.050000
v -0.150000 0.050000 0.000000
v -0.250000 0.150000 0.000000
v -0.200000 0.100000 0.050000
v -0.200000 0.100000 -0.050000
v 0.010000 0.000000 0.050000
v 0.020000 0.000000 0.050000
v 0.000000 -0.100000 0.050000
v -0.010000 -0.090000 0.050000
v -0.130000 -0.100000 0.050000
v -0.130000 -0.090000 0.050000
v 0.020000 0.000000 -0.050000
v 0.010000 0.000000 -0.050000
v 0.000000 -0.100000 -0.050000
v -0.010000 -0.090000 -0.050000
v -0.130000 -0.100000 -0.050000
v -0.130000 -0.090000 -0.050000
v -0.380000 -0.400000 0.080000
v -0.220000 -0.400000 0.080000
v -0.380000 -0.400000 -0.080000
v -0.220000 -0.400000 -0.080000
v -0.280000 -0.040000 0.070000
v -0.130000 -0.040000 0.070000
v -0.280000 -0.040000 -0.070000
v -0.130000 -0.040000 -0.070000
# 100 vertices

vt 0.000000 1.000000
# 1 texture coordinates

vn -0.611748 -0.477639 0.630576
vn 0.471833 -0.847490 0.243177
vn 0.433861 -0.108465 0.894427
vn -0.685994 0.171499 0.707107
vn -0.867722 0.216930 -0.447214
vn -0.273907 -0.778535 -0.564675
vn 0.685994 -0.171499 -0.707107
vn 0.217255 -0.950079 -0.223941
vn 0.727607 0.485071 0.485071
vn -0.453235 0.733349 0.506732
vn -0.616396 -0.380954 0.689152
vn 0.801784 -0.534522 0.267261
vn -0.265879 -0.758847 -0.594525
vn -0.504399 0.816135 -0.281968
vn 0.801784 0.267261 -0.534522
vn 0.000000 -1.000000 0.000000
vn 0.904534 -0.301511 -0.301511
vn 0.904534 -0.426401 -0.000000
vn 0.904534 0.426401 0.000000
vn 0.000000 0.316228 0.948683
vn 0.000000 1.000000 0.000000
vn 0.000000 0.316228 -0.948683
vn 0.000000 -0.316228 -0.948683
vn 0.000000 -0.316228 0.948683
vn 0.267261 0.534523 0.801784
vn 0.447214 0.894427 0.000000
vn 0.707107 -0.707107 0.000000
vn 0.267261 0.534523 -0.801784
vn 0.867722 -0.216930 0.447214
vn -0.433861 0.108465 -0.894427
vn 0.510047 -0.362084 0.780222
vn -0.506338 0.371865 0.778035
vn 0.000000 -0.707107 0.707107
vn 0.000000 0.894427 0.447214
vn -0.436564 0.097014 0.894427
vn 0.693375 -0.138675 0.707107
vn 0.255024 -0.571153 -0.780222
vn 0.877058 -0.175412 -0.447214
vn 0.000000 -0.447214 -0.894427
vn -0.253169 0.574950 -0.778035
vn 0.000000 0.707107 -0.707107
vn -0.690268 0.153393 -0.707107
vn 0.461865 -0.853979 0.239584
vn -0.606695 -0.491058 0.625126
vn -0.270624 -0.784694 -0.557690
vn 0.213441 -0.951530 -0.221437
vn 0.299895 -0.723088 0.622259
vn 0.602166 -0.497105 -0.624726
vn -0.725938 -0.577184 -0.373996
# 49 normals

g Grip
s 1
f 5/1/1 6/1/2 7/1/3
f 7/1/3 8/1/4 5/1/1
f 3/1/5 1/1/6 5/1/1
f 5/1/1 8/1/4 3/1/5
f 1/1/6 4/1/7 2/1/8
f 1/1/6 3/1/5 4/1/7
f 4/1/7 6/1/2 2/1/8
f 7/1/3 6/1/2 4/1/7
f 45/1/4 46/1/29 47/1/3
f 47/1/3 48/1/4 45/1/4
f 43/1/5 41/1/30 45/1/4
f 45/1/4 48/1/4 43/1/5
f 41/1/30 44/1/7 42/1/7
f 41/1/30 43/1/5 44/1/7
f 44/1/7 46/1/29 42/1/7
f 47/1/3 46/1/29 44/1/7
f 1/1/6 1/1/6 1/1/6
f 2/1/8 95/1/43 1/1/6
f 96/1/44 95/1/43 2/1/8
f 94/1/45 96/1/44 2/1/8
f 6/1/2 94/1/45 2/1/8
f 5/1/1 93/1/46 6/1/2
f 93/1/46 94/1/45 6/1/2
f 93/1/46 5/1/1 1/1/6
f 1/1/6 95/1/43 93/1/46
f 95/1/43 99/1/47 97/1/48
f 97/1/48 93/1/46 95/1/43
f 95/1/43 96/1/44 99/1/47
f 100/1/44 99/1/47 96/1/44
f 93/1/46 97/1/48 94/1/45
f 98/1/49 94/1/45 97/1/48
f 98/1/49 100/1/44 96/1/44
f 96/1/44 94/1/45 98/1/49
f 99/1/47 100/1/44 98/1/49
f 98/1/49 97/1/48 99/1/47
# 35 triangles in group

g Top
f 15/1/9 14/1/10 13/1/11
f 13/1/11 16/1/12 15/1/9
f 17/1/13 13/1/11 18/1/14
f 13/1/11 14/1/10 18/1/14
f 15/1/9 18/1/14 14/1/10
f 15/1/9 19/1/15 18/1/14
f 10/1/16 20/1/17 16/1/12
f 16/1/12 11/1/16 10/1/16
f 12/1/16 13/1/11 17/1/13
f 13/1/11 17/1/13 12/1/16
f 12/1/16 17/1/13 9/1/16
f 19/1/15 20/1/17 17/1/13
f 19/1/15 17/1/13 18/1/14
f 21/1/18 15/1/9 16/1/12
f 15/1/9 21/1/18 22/1/19
f 15/1/9 22/1/19 19/1/15
f 19/1/15 22/1/19 24/1/18
f 19/1/15 24/1/18 20/1/17
f 20/1/17 24/1/18 23/1/19
f 20/1/17 23/1/19 16/1/12
f 16/1/12 23/1/19 21/1/18
f 21/1/18 23/1/19 27/1/16
f 25/1/20 21/1/18 27/1/16
f 22/1/19 21/1/18 25/1/20
f 25/1/20 26/1/21 22/1/19
f 26/1/21 28/1/22 22/1/19
f 28/1/22 24/1/18 22/1/19
f 27/1/16 24/1/18 28/1/22
f 27/1/16 23/1/19 24/1/18
f 35/1/21 31/1/21 29/1/22
f 35/1/21 29/1/22 33/1/23
f 33/1/23 29/1/22 30/1/16
f 30/1/16 34/1/16 33/1/23
f 30/1/16 36/1/24 34/1/16
f 30/1/16 32/1/20 36/1/24
f 36/1/24 32/1/20 35/1/21
f 32/1/20 31/1/21 35/1/21
f 40/1/25 37/1/26 23/1/19
f 23/1/19 24/1/18 40/1/25
f 38/1/27 40/1/25 24/1/18
f 24/1/18 22/1/19 38/1/27
f 39/1/28 23/1/19 37/1/26
f 39/1/28 21/1/18 23/1/19
f 38/1/27 21/1/18 39/1/28
f 38/1/27 22/1/19 21/1/18
f 37/1/26 40/1/25 38/1/27
f 38/1/27 39/1/28 37/1/26
f 55/1/9 54/1/10 53/1/11
f 53/1/11 56/1/12 55/1/9
f 57/1/13 53/1/11 58/1/14
f 53/1/11 54/1/10 58/1/14
f 55/1/9 58/1/14 54/1/10
f 55/1/9 59/1/15 58/1/14
f 50/1/16 60/1/17 56/1/12
f 56/1/12 51/1/16 50/1/16
f 52/1/16 53/1/11 57/1/13
f 53/1/11 57/1/13 52/1/16
f 52/1/16 57/1/13 49/1/16
f 59/1/15 60/1/17 57/1/13
f 59/1/15 57/1/13 58/1/14
f 61/1/18 55/1/9 56/1/12
f 55/1/9 61/1/18 62/1/19
f 55/1/9 62/1/19 59/1/15
f 59/1/15 62/1/19 64/1/18
f 59/1/15 64/1/18 60/1/17
f 60/1/17 64/1/18 63/1/19
f 60/1/17 63/1/19 56/1/12
f 56/1/12 63/1/19 61/1/18
f 61/1/18 63/1/19 67/1/16
f 65/1/20 61/1/18 67/1/16
f 62/1/19 61/1/18 65/1/20
f 65/1/20 66/1/21 62/1/19
f 66/1/21 68/1/22 62/1/19
f 68/1/22 64/1/18 62/1/19
f 67/1/16 64/1/18 68/1/22
f 67/1/16 63/1/19 64/1/18
f 75/1/21 71/1/21 69/1/22
f 75/1/21 69/1/22 73/1/23
f 73/1/23 69/1/22 70/1/16
f 70/1/16 74/1/16 73/1/23
f 70/1/16 76/1/24 74/1/16
f 70/1/16 72/1/20 76/1/24
f 76/1/24 72/1/20 75/1/21
f 72/1/20 71/1/21 75/1/21
f 80/1/25 77/1/26 63/1/19
f 63/1/19 64/1/18 80/1/25
f 78/1/27 80/1/25 64/1/18
f 64/1/18 62/1/19 78/1/27
f 79/1/28 63/1/19 77/1/26
f 79/1/28 61/1/18 63/1/19
f 78/1/27 61/1/18 79/1/28
f 78/1/27 62/1/19 61/1/18
f 77/1/26 80/1/25 78/1/27
f 78/1/27 79/1/28 77/1/26
# 94 triangles in group

g Finger Hold
f 83/1/31 84/1/32 85/1/33
f 84/1/32 86/1/34 85/1/33
f 81/1/35 83/1/31 82/1/36
f 83/1/31 81/1/35 84/1/32
f 83/1/31 89/1/37 87/1/38
f 83/1/31 87/1/38 82/1/36
f 85/1/33 91/1/39 89/1/37
f 89/1/37 83/1/31 85/1/33
f 86/1/34 84/1/32 90/1/40
f 90/1/40 92/1/41 86/1/34
f 84/1/32 81/1/35 88/1/42
f 88/1/42 90/1/40 84/1/32
f 90/1/40 89/1/37 91/1/39
f 91/1/39 92/1/41 90/1/40
f 89/1/37 88/1/42 87/1/38
f 89/1/37 90/1/40 88/1/42
# 16 triangles in group

# 145 triangles total

