# Wavefront OBJ exported by MilkShape 3D

v -0.125000 -0.040000 0.060000
v -0.285000 -0.040000 0.060000
v -0.125000 -0.040000 -0.060000
v -0.285000 -0.040000 -0.060000
v -0.225000 -0.400000 0.070000
v -0.375000 -0.400000 0.070000
v -0.225000 -0.400000 -0.070000
v -0.375000 -0.400000 -0.070000
v -0.145000 -0.040000 0.040000
v -0.265000 -0.040000 0.040000
v -0.145000 -0.040000 -0.040000
v -0.265000 -0.040000 -0.040000
v -0.245000 -0.380000 0.050000
v -0.355000 -0.380000 0.050000
v -0.245000 -0.380000 -0.050000
v -0.355000 -0.380000 -0.050000
v -0.400000 -0.400000 0.070000
v -0.180000 -0.400000 0.070000
v -0.180000 -0.420000 0.070000
v -0.400000 -0.420000 0.070000
v -0.400000 -0.400000 -0.070000
v -0.400000 -0.420000 -0.070000
v -0.180000 -0.420000 -0.070000
v -0.180000 -0.400000 -0.070000
# 24 vertices

vt 0.000000 1.000000
# 1 texture coordinates

vn 0.612451 -0.470295 0.635395
vn 0.307491 -0.705959 -0.638021
vn 0.731483 0.566530 -0.379443
vn 0.311854 0.893348 0.323537
vn -0.430670 0.785880 -0.443753
vn -0.616929 -0.464026 -0.635671
vn -0.200503 0.888298 0.413188
vn -0.734641 -0.563077 0.378479
vn -0.381870 0.902552 0.198936
vn -0.305520 0.708054 0.636645
vn -0.608441 0.477414 -0.633937
vn -0.271349 0.920021 -0.282720
vn 0.523564 0.657881 0.541362
vn 0.618304 0.457127 0.639323
vn 0.346774 0.604550 -0.717125
vn 0.737892 0.556761 -0.381488
vn 0.408248 -0.408248 0.816497
vn -0.666667 0.333333 0.666667
vn -0.408248 -0.816497 0.408248
vn 0.666667 0.666667 0.333333
vn 0.577350 -0.577350 -0.577350
vn 0.577350 0.577350 -0.577350
vn -0.816497 -0.408248 -0.408248
vn -0.333333 0.666667 -0.666667
# 24 normals

g Grip
s 1
f 5/1/1 7/1/2 3/1/3
f 3/1/3 1/1/4 5/1/1
f 7/1/2 4/1/5 3/1/3
f 4/1/5 7/1/2 8/1/6
f 2/1/7 5/1/1 1/1/4
f 5/1/1 2/1/7 6/1/8
f 4/1/5 8/1/6 6/1/8
f 6/1/8 2/1/7 4/1/5
f 6/1/8 8/1/6 7/1/2
f 7/1/2 5/1/1 6/1/8
f 3/1/3 4/1/5 11/1/9
f 12/1/13 11/1/9 4/1/5
f 1/1/4 3/1/3 11/1/9
f 11/1/9 9/1/12 1/1/4
f 2/1/7 9/1/12 10/1/15
f 9/1/12 2/1/7 1/1/4
f 12/1/13 4/1/5 2/1/7
f 2/1/7 10/1/15 12/1/13
f 19/1/17 17/1/18 20/1/19
f 19/1/17 18/1/20 17/1/18
f 18/1/20 19/1/17 23/1/21
f 23/1/21 24/1/22 18/1/20
f 20/1/19 22/1/23 23/1/21
f 19/1/17 20/1/19 23/1/21
f 21/1/24 23/1/21 22/1/23
f 21/1/24 24/1/22 23/1/21
f 24/1/22 21/1/24 18/1/20
f 17/1/18 18/1/20 21/1/24
f 22/1/23 20/1/19 17/1/18
f 17/1/18 21/1/24 22/1/23
# 30 triangles in group

g Duplicate01
f 11/1/9 15/1/10 13/1/11
f 13/1/11 9/1/12 11/1/9
f 11/1/9 12/1/13 15/1/10
f 16/1/14 15/1/10 12/1/13
f 9/1/12 13/1/11 10/1/15
f 14/1/16 10/1/15 13/1/11
f 14/1/16 16/1/14 12/1/13
f 12/1/13 10/1/15 14/1/16
f 15/1/10 16/1/14 14/1/16
f 14/1/16 13/1/11 15/1/10
# 10 triangles in group

# 40 triangles total

